<mxfile host="app.diagrams.net" agent="Mozilla/5.0 (Windows NT 10.0; Win64; x64; rv:131.0) Gecko/20100101 Firefox/131.0" version="24.7.17">
  <diagram id="C5RBs43oDa-KdzZeNtuy" name="Page-1">
    <mxGraphModel dx="1434" dy="794" grid="1" gridSize="10" guides="1" tooltips="1" connect="1" arrows="1" fold="1" page="1" pageScale="1" pageWidth="827" pageHeight="1169" math="0" shadow="0">
      <root>
        <mxCell id="WIyWlLk6GJQsqaUBKTNV-0" />
        <mxCell id="WIyWlLk6GJQsqaUBKTNV-1" parent="WIyWlLk6GJQsqaUBKTNV-0" />
        <mxCell id="fxpXkKA73AskWZWgzv29-11" style="edgeStyle=orthogonalEdgeStyle;rounded=0;orthogonalLoop=1;jettySize=auto;html=1;exitX=0;exitY=0.5;exitDx=0;exitDy=0;entryX=1;entryY=0;entryDx=0;entryDy=0;strokeWidth=2;endArrow=open;endFill=0;" edge="1" parent="WIyWlLk6GJQsqaUBKTNV-1" source="WIyWlLk6GJQsqaUBKTNV-6" target="fxpXkKA73AskWZWgzv29-6">
          <mxGeometry relative="1" as="geometry" />
        </mxCell>
        <mxCell id="fxpXkKA73AskWZWgzv29-12" style="edgeStyle=orthogonalEdgeStyle;rounded=0;orthogonalLoop=1;jettySize=auto;html=1;exitX=1;exitY=0.5;exitDx=0;exitDy=0;entryX=0.5;entryY=0;entryDx=0;entryDy=0;strokeWidth=2;endArrow=open;endFill=0;" edge="1" parent="WIyWlLk6GJQsqaUBKTNV-1" source="WIyWlLk6GJQsqaUBKTNV-6" target="fxpXkKA73AskWZWgzv29-9">
          <mxGeometry relative="1" as="geometry" />
        </mxCell>
        <mxCell id="WIyWlLk6GJQsqaUBKTNV-6" value="" style="rhombus;whiteSpace=wrap;html=1;shadow=0;fontFamily=Helvetica;fontSize=12;align=center;strokeWidth=2;spacing=6;spacingTop=-4;" parent="WIyWlLk6GJQsqaUBKTNV-1" vertex="1">
          <mxGeometry x="360" y="120" width="40" height="40" as="geometry" />
        </mxCell>
        <mxCell id="fxpXkKA73AskWZWgzv29-4" style="edgeStyle=orthogonalEdgeStyle;rounded=0;orthogonalLoop=1;jettySize=auto;html=1;exitX=0.5;exitY=1;exitDx=0;exitDy=0;entryX=0.5;entryY=0;entryDx=0;entryDy=0;endArrow=open;endFill=0;strokeWidth=2;" edge="1" parent="WIyWlLk6GJQsqaUBKTNV-1" source="fxpXkKA73AskWZWgzv29-1" target="WIyWlLk6GJQsqaUBKTNV-6">
          <mxGeometry relative="1" as="geometry" />
        </mxCell>
        <mxCell id="fxpXkKA73AskWZWgzv29-1" value="" style="ellipse;whiteSpace=wrap;html=1;aspect=fixed;fillStyle=solid;fillColor=#000000;" vertex="1" parent="WIyWlLk6GJQsqaUBKTNV-1">
          <mxGeometry x="360" y="40" width="40" height="40" as="geometry" />
        </mxCell>
        <mxCell id="fxpXkKA73AskWZWgzv29-7" value="" style="group" vertex="1" connectable="0" parent="WIyWlLk6GJQsqaUBKTNV-1">
          <mxGeometry x="120" y="180" width="170" height="70" as="geometry" />
        </mxCell>
        <mxCell id="fxpXkKA73AskWZWgzv29-5" value="&lt;b&gt;&lt;font style=&quot;font-size: 14px;&quot;&gt;Read Excel File 1&lt;/font&gt;&lt;/b&gt;" style="rounded=0;whiteSpace=wrap;html=1;" vertex="1" parent="fxpXkKA73AskWZWgzv29-7">
          <mxGeometry width="170" height="70" as="geometry" />
        </mxCell>
        <mxCell id="fxpXkKA73AskWZWgzv29-6" value="button press" style="rounded=0;whiteSpace=wrap;html=1;" vertex="1" parent="fxpXkKA73AskWZWgzv29-7">
          <mxGeometry width="85" height="23.33333333333333" as="geometry" />
        </mxCell>
        <mxCell id="fxpXkKA73AskWZWgzv29-8" value="" style="group" vertex="1" connectable="0" parent="WIyWlLk6GJQsqaUBKTNV-1">
          <mxGeometry x="480" y="180" width="170" height="70" as="geometry" />
        </mxCell>
        <mxCell id="fxpXkKA73AskWZWgzv29-9" value="&lt;b&gt;&lt;font style=&quot;font-size: 14px;&quot;&gt;Read Excel File 2&lt;br&gt;&lt;/font&gt;&lt;/b&gt;" style="rounded=0;whiteSpace=wrap;html=1;" vertex="1" parent="fxpXkKA73AskWZWgzv29-8">
          <mxGeometry width="170" height="70" as="geometry" />
        </mxCell>
        <mxCell id="fxpXkKA73AskWZWgzv29-10" value="button press" style="rounded=0;whiteSpace=wrap;html=1;" vertex="1" parent="fxpXkKA73AskWZWgzv29-8">
          <mxGeometry width="85" height="23.33333333333333" as="geometry" />
        </mxCell>
        <mxCell id="fxpXkKA73AskWZWgzv29-13" value="" style="group" vertex="1" connectable="0" parent="WIyWlLk6GJQsqaUBKTNV-1">
          <mxGeometry x="90" y="280" width="230" height="230" as="geometry" />
        </mxCell>
        <mxCell id="fxpXkKA73AskWZWgzv29-14" value="" style="rounded=0;whiteSpace=wrap;html=1;" vertex="1" parent="fxpXkKA73AskWZWgzv29-13">
          <mxGeometry width="230.00000000000006" height="230" as="geometry" />
        </mxCell>
        <mxCell id="fxpXkKA73AskWZWgzv29-15" value="read excel command" style="rounded=0;whiteSpace=wrap;html=1;" vertex="1" parent="fxpXkKA73AskWZWgzv29-13">
          <mxGeometry width="115" height="36.8" as="geometry" />
        </mxCell>
        <mxCell id="fxpXkKA73AskWZWgzv29-22" value="" style="group" vertex="1" connectable="0" parent="fxpXkKA73AskWZWgzv29-13">
          <mxGeometry x="22" y="50" width="186" height="161.6" as="geometry" />
        </mxCell>
        <mxCell id="fxpXkKA73AskWZWgzv29-18" style="edgeStyle=orthogonalEdgeStyle;rounded=0;orthogonalLoop=1;jettySize=auto;html=1;exitX=0.5;exitY=1;exitDx=0;exitDy=0;endArrow=none;endFill=0;dashed=1;strokeWidth=1;" edge="1" parent="fxpXkKA73AskWZWgzv29-22" source="fxpXkKA73AskWZWgzv29-16">
          <mxGeometry relative="1" as="geometry">
            <mxPoint x="35" y="161.6" as="targetPoint" />
          </mxGeometry>
        </mxCell>
        <mxCell id="fxpXkKA73AskWZWgzv29-16" value="&lt;font style=&quot;font-size: 14px;&quot;&gt;&lt;b&gt;App&lt;/b&gt;&lt;/font&gt;" style="rounded=0;whiteSpace=wrap;html=1;" vertex="1" parent="fxpXkKA73AskWZWgzv29-22">
          <mxGeometry width="70" height="50.5" as="geometry" />
        </mxCell>
        <mxCell id="fxpXkKA73AskWZWgzv29-19" style="edgeStyle=orthogonalEdgeStyle;rounded=0;orthogonalLoop=1;jettySize=auto;html=1;exitX=0.5;exitY=1;exitDx=0;exitDy=0;endArrow=none;endFill=0;dashed=1;" edge="1" parent="fxpXkKA73AskWZWgzv29-22" source="fxpXkKA73AskWZWgzv29-17">
          <mxGeometry relative="1" as="geometry">
            <mxPoint x="146" y="161.6" as="targetPoint" />
          </mxGeometry>
        </mxCell>
        <mxCell id="fxpXkKA73AskWZWgzv29-17" value="&lt;font style=&quot;font-size: 13px;&quot;&gt;&lt;b&gt;Hospital Database File&lt;/b&gt;&lt;/font&gt;" style="rounded=0;whiteSpace=wrap;html=1;" vertex="1" parent="fxpXkKA73AskWZWgzv29-22">
          <mxGeometry x="106" width="80" height="50.5" as="geometry" />
        </mxCell>
        <mxCell id="fxpXkKA73AskWZWgzv29-20" value="" style="endArrow=open;html=1;rounded=0;endFill=0;strokeWidth=2;" edge="1" parent="fxpXkKA73AskWZWgzv29-22">
          <mxGeometry width="50" height="50" relative="1" as="geometry">
            <mxPoint x="146" y="111.10000000000001" as="sourcePoint" />
            <mxPoint x="36" y="111.10000000000001" as="targetPoint" />
          </mxGeometry>
        </mxCell>
        <mxCell id="fxpXkKA73AskWZWgzv29-21" value="Hospital Data" style="edgeLabel;html=1;align=center;verticalAlign=middle;resizable=0;points=[];" vertex="1" connectable="0" parent="fxpXkKA73AskWZWgzv29-20">
          <mxGeometry x="-0.1818" relative="1" as="geometry">
            <mxPoint x="-10" y="-20" as="offset" />
          </mxGeometry>
        </mxCell>
        <mxCell id="fxpXkKA73AskWZWgzv29-23" value="" style="group" vertex="1" connectable="0" parent="WIyWlLk6GJQsqaUBKTNV-1">
          <mxGeometry x="450" y="280" width="230" height="230" as="geometry" />
        </mxCell>
        <mxCell id="fxpXkKA73AskWZWgzv29-24" value="" style="rounded=0;whiteSpace=wrap;html=1;" vertex="1" parent="fxpXkKA73AskWZWgzv29-23">
          <mxGeometry width="230.00000000000006" height="230" as="geometry" />
        </mxCell>
        <mxCell id="fxpXkKA73AskWZWgzv29-25" value="read excel command" style="rounded=0;whiteSpace=wrap;html=1;" vertex="1" parent="fxpXkKA73AskWZWgzv29-23">
          <mxGeometry width="115" height="36.800000000000004" as="geometry" />
        </mxCell>
        <mxCell id="fxpXkKA73AskWZWgzv29-26" value="" style="group" vertex="1" connectable="0" parent="fxpXkKA73AskWZWgzv29-23">
          <mxGeometry x="22" y="46" width="186" height="165.6" as="geometry" />
        </mxCell>
        <mxCell id="fxpXkKA73AskWZWgzv29-27" style="edgeStyle=orthogonalEdgeStyle;rounded=0;orthogonalLoop=1;jettySize=auto;html=1;exitX=0.5;exitY=1;exitDx=0;exitDy=0;endArrow=none;endFill=0;dashed=1;strokeWidth=1;" edge="1" parent="fxpXkKA73AskWZWgzv29-26" source="fxpXkKA73AskWZWgzv29-28">
          <mxGeometry relative="1" as="geometry">
            <mxPoint x="35" y="165.6" as="targetPoint" />
          </mxGeometry>
        </mxCell>
        <mxCell id="fxpXkKA73AskWZWgzv29-28" value="&lt;font style=&quot;font-size: 14px;&quot;&gt;&lt;b&gt;App&lt;/b&gt;&lt;/font&gt;" style="rounded=0;whiteSpace=wrap;html=1;" vertex="1" parent="fxpXkKA73AskWZWgzv29-26">
          <mxGeometry width="70" height="51.74999999999999" as="geometry" />
        </mxCell>
        <mxCell id="fxpXkKA73AskWZWgzv29-29" style="edgeStyle=orthogonalEdgeStyle;rounded=0;orthogonalLoop=1;jettySize=auto;html=1;exitX=0.5;exitY=1;exitDx=0;exitDy=0;endArrow=none;endFill=0;dashed=1;" edge="1" parent="fxpXkKA73AskWZWgzv29-26" source="fxpXkKA73AskWZWgzv29-30">
          <mxGeometry relative="1" as="geometry">
            <mxPoint x="146" y="165.6" as="targetPoint" />
          </mxGeometry>
        </mxCell>
        <mxCell id="fxpXkKA73AskWZWgzv29-30" value="&lt;font style=&quot;font-size: 13px;&quot;&gt;&lt;b&gt;Medicaid Database File&lt;/b&gt;&lt;/font&gt;" style="rounded=0;whiteSpace=wrap;html=1;" vertex="1" parent="fxpXkKA73AskWZWgzv29-26">
          <mxGeometry x="106" width="80" height="51.74999999999999" as="geometry" />
        </mxCell>
        <mxCell id="fxpXkKA73AskWZWgzv29-31" value="" style="endArrow=open;html=1;rounded=0;endFill=0;strokeWidth=2;" edge="1" parent="fxpXkKA73AskWZWgzv29-26">
          <mxGeometry width="50" height="50" relative="1" as="geometry">
            <mxPoint x="146" y="113.85" as="sourcePoint" />
            <mxPoint x="36" y="113.85" as="targetPoint" />
          </mxGeometry>
        </mxCell>
        <mxCell id="fxpXkKA73AskWZWgzv29-32" value="Medicaid Data" style="edgeLabel;html=1;align=center;verticalAlign=middle;resizable=0;points=[];" vertex="1" connectable="0" parent="fxpXkKA73AskWZWgzv29-31">
          <mxGeometry x="-0.1818" relative="1" as="geometry">
            <mxPoint x="-10" y="-20" as="offset" />
          </mxGeometry>
        </mxCell>
        <mxCell id="fxpXkKA73AskWZWgzv29-33" style="edgeStyle=orthogonalEdgeStyle;rounded=0;orthogonalLoop=1;jettySize=auto;html=1;exitX=0.5;exitY=1;exitDx=0;exitDy=0;entryX=0.5;entryY=0;entryDx=0;entryDy=0;strokeWidth=2;endArrow=open;endFill=0;" edge="1" parent="WIyWlLk6GJQsqaUBKTNV-1" source="fxpXkKA73AskWZWgzv29-5" target="fxpXkKA73AskWZWgzv29-14">
          <mxGeometry relative="1" as="geometry" />
        </mxCell>
        <mxCell id="fxpXkKA73AskWZWgzv29-34" style="edgeStyle=orthogonalEdgeStyle;rounded=0;orthogonalLoop=1;jettySize=auto;html=1;exitX=0.5;exitY=1;exitDx=0;exitDy=0;strokeWidth=2;endArrow=open;endFill=0;" edge="1" parent="WIyWlLk6GJQsqaUBKTNV-1" source="fxpXkKA73AskWZWgzv29-9" target="fxpXkKA73AskWZWgzv29-24">
          <mxGeometry relative="1" as="geometry" />
        </mxCell>
        <mxCell id="fxpXkKA73AskWZWgzv29-42" style="edgeStyle=orthogonalEdgeStyle;rounded=0;orthogonalLoop=1;jettySize=auto;html=1;exitX=0;exitY=0.5;exitDx=0;exitDy=0;entryX=0;entryY=0.5;entryDx=0;entryDy=0;strokeWidth=2;endArrow=open;endFill=0;" edge="1" parent="WIyWlLk6GJQsqaUBKTNV-1" source="fxpXkKA73AskWZWgzv29-35" target="fxpXkKA73AskWZWgzv29-5">
          <mxGeometry relative="1" as="geometry">
            <Array as="points">
              <mxPoint x="60" y="585" />
              <mxPoint x="60" y="215" />
            </Array>
          </mxGeometry>
        </mxCell>
        <mxCell id="fxpXkKA73AskWZWgzv29-43" style="edgeStyle=orthogonalEdgeStyle;rounded=0;orthogonalLoop=1;jettySize=auto;html=1;exitX=1;exitY=0.5;exitDx=0;exitDy=0;entryX=1;entryY=0.5;entryDx=0;entryDy=0;strokeWidth=2;endArrow=open;endFill=0;" edge="1" parent="WIyWlLk6GJQsqaUBKTNV-1" source="fxpXkKA73AskWZWgzv29-35" target="fxpXkKA73AskWZWgzv29-9">
          <mxGeometry relative="1" as="geometry">
            <Array as="points">
              <mxPoint x="710" y="585" />
              <mxPoint x="710" y="215" />
            </Array>
          </mxGeometry>
        </mxCell>
        <mxCell id="fxpXkKA73AskWZWgzv29-48" style="edgeStyle=orthogonalEdgeStyle;rounded=0;orthogonalLoop=1;jettySize=auto;html=1;exitX=0.5;exitY=1;exitDx=0;exitDy=0;entryX=1;entryY=0;entryDx=0;entryDy=0;strokeWidth=2;endArrow=open;endFill=0;" edge="1" parent="WIyWlLk6GJQsqaUBKTNV-1" source="fxpXkKA73AskWZWgzv29-35" target="fxpXkKA73AskWZWgzv29-46">
          <mxGeometry relative="1" as="geometry">
            <Array as="points">
              <mxPoint x="385" y="640" />
              <mxPoint x="385" y="640" />
            </Array>
          </mxGeometry>
        </mxCell>
        <mxCell id="fxpXkKA73AskWZWgzv29-54" value="&lt;font style=&quot;font-size: 12px;&quot;&gt;&lt;b&gt;[Both Excel files are loaded]&lt;/b&gt;&lt;/font&gt;" style="edgeLabel;html=1;align=center;verticalAlign=middle;resizable=0;points=[];" vertex="1" connectable="0" parent="fxpXkKA73AskWZWgzv29-48">
          <mxGeometry x="-0.2533" y="-7" relative="1" as="geometry">
            <mxPoint x="27" y="7" as="offset" />
          </mxGeometry>
        </mxCell>
        <mxCell id="fxpXkKA73AskWZWgzv29-35" value="" style="rhombus;whiteSpace=wrap;html=1;shadow=0;fontFamily=Helvetica;fontSize=12;align=center;strokeWidth=2;spacing=6;spacingTop=-4;" vertex="1" parent="WIyWlLk6GJQsqaUBKTNV-1">
          <mxGeometry x="365" y="565" width="40" height="40" as="geometry" />
        </mxCell>
        <mxCell id="fxpXkKA73AskWZWgzv29-37" style="edgeStyle=orthogonalEdgeStyle;rounded=0;orthogonalLoop=1;jettySize=auto;html=1;exitX=0.5;exitY=1;exitDx=0;exitDy=0;entryX=0.5;entryY=0;entryDx=0;entryDy=0;strokeWidth=2;endArrow=open;endFill=0;" edge="1" parent="WIyWlLk6GJQsqaUBKTNV-1" source="fxpXkKA73AskWZWgzv29-24" target="fxpXkKA73AskWZWgzv29-35">
          <mxGeometry relative="1" as="geometry">
            <mxPoint x="565" y="560" as="targetPoint" />
          </mxGeometry>
        </mxCell>
        <mxCell id="fxpXkKA73AskWZWgzv29-38" style="edgeStyle=orthogonalEdgeStyle;rounded=0;orthogonalLoop=1;jettySize=auto;html=1;exitX=0.5;exitY=1;exitDx=0;exitDy=0;entryX=0.5;entryY=0;entryDx=0;entryDy=0;strokeWidth=2;endArrow=open;endFill=0;" edge="1" parent="WIyWlLk6GJQsqaUBKTNV-1" source="fxpXkKA73AskWZWgzv29-14" target="fxpXkKA73AskWZWgzv29-35">
          <mxGeometry relative="1" as="geometry" />
        </mxCell>
        <mxCell id="fxpXkKA73AskWZWgzv29-44" value="" style="group" vertex="1" connectable="0" parent="WIyWlLk6GJQsqaUBKTNV-1">
          <mxGeometry x="300" y="680" width="170" height="70" as="geometry" />
        </mxCell>
        <mxCell id="fxpXkKA73AskWZWgzv29-45" value="&lt;b&gt;Combine Data&lt;br&gt;&lt;/b&gt;" style="rounded=0;whiteSpace=wrap;html=1;" vertex="1" parent="fxpXkKA73AskWZWgzv29-44">
          <mxGeometry width="170" height="60" as="geometry" />
        </mxCell>
        <mxCell id="fxpXkKA73AskWZWgzv29-46" value="button press" style="rounded=0;whiteSpace=wrap;html=1;" vertex="1" parent="fxpXkKA73AskWZWgzv29-44">
          <mxGeometry width="85" height="20" as="geometry" />
        </mxCell>
        <mxCell id="fxpXkKA73AskWZWgzv29-52" value="" style="group" vertex="1" connectable="0" parent="WIyWlLk6GJQsqaUBKTNV-1">
          <mxGeometry x="365" y="780" width="40" height="40" as="geometry" />
        </mxCell>
        <mxCell id="fxpXkKA73AskWZWgzv29-50" value="" style="ellipse;whiteSpace=wrap;html=1;aspect=fixed;fillStyle=auto;fillColor=#FFFFFF;strokeWidth=2;" vertex="1" parent="fxpXkKA73AskWZWgzv29-52">
          <mxGeometry width="40" height="40" as="geometry" />
        </mxCell>
        <mxCell id="fxpXkKA73AskWZWgzv29-51" value="" style="ellipse;whiteSpace=wrap;html=1;aspect=fixed;fillStyle=solid;fillColor=#000000;" vertex="1" parent="fxpXkKA73AskWZWgzv29-52">
          <mxGeometry x="5" y="5" width="30" height="30" as="geometry" />
        </mxCell>
        <mxCell id="fxpXkKA73AskWZWgzv29-53" style="edgeStyle=orthogonalEdgeStyle;rounded=0;orthogonalLoop=1;jettySize=auto;html=1;exitX=0.5;exitY=1;exitDx=0;exitDy=0;entryX=0.5;entryY=0;entryDx=0;entryDy=0;strokeWidth=2;endArrow=open;endFill=0;" edge="1" parent="WIyWlLk6GJQsqaUBKTNV-1" source="fxpXkKA73AskWZWgzv29-45" target="fxpXkKA73AskWZWgzv29-50">
          <mxGeometry relative="1" as="geometry" />
        </mxCell>
      </root>
    </mxGraphModel>
  </diagram>
</mxfile>
